<?xml version="1.0" encoding="utf-8"?>
<!-- Generator: Adobe Illustrator 27.0.0, SVG Export Plug-In . SVG Version: 6.00 Build 0)  -->
<svg version="1.1" id="Layer_1" xmlns="http://www.w3.org/2000/svg" xmlns:xlink="http://www.w3.org/1999/xlink" x="0px" y="0px"
	 viewBox="0 0 826.49 424.08" style="enable-background:new 0 0 826.49 424.08;" xml:space="preserve">
<path d="M142.58,142.87h15.71h175.37c3,0,5.85-1.3,7.82-3.57l43.22-49.99c1.61-1.86,0.29-4.75-2.17-4.75H190.63
	c-3.08,0-6,1.34-8.01,3.67l-33.8,39.26l0,0l-7.61,8.83c-3.58,4.16-8.8,6.55-14.28,6.55h-12.69H2.73c-2.33,0-3.59,2.73-2.07,4.5
	l43.15,50.4c1.95,2.28,4.81,3.6,7.81,3.6H167.1h13.11c2.3,0,3.56,2.68,2.1,4.45l-6.03,7.31l-53.15,62.56
	c-3.34,3.93-3.34,9.71,0.01,13.64l42,49.22c1.11,1.3,3.11,1.31,4.23,0.01l115.1-133.14c1.37-1.59,0.24-4.06-1.86-4.06h-73.14h-14.96
	c-5.41,0-10.56-2.36-14.09-6.46l-31.68-36.77l-8.59-9.97C138.36,146.09,139.83,142.87,142.58,142.87z"/>
<g>
	<path d="M588,235.65v18.68h-66.11v-84.69H588v18.68h-46.18v14.32h38.71v18.68h-38.71v14.32H588z"/>
	<path d="M665.25,235.65v18.68h-66.11v-84.69h66.11v18.68h-46.18v14.32h38.71v18.68h-38.71v14.32H665.25z"/>
	<path d="M749.25,235.65v18.68h-72.85v-15.44l43.71-50.56h-43.71v-18.68h72.85v15.44l-43.71,50.56H749.25z"/>
	<polygon points="826.21,235.65 780.31,235.65 780.31,221.33 819.02,221.33 819.02,202.65 780.31,202.65 780.31,188.33 
		826.49,188.33 826.49,169.65 760.39,169.65 760.39,254.33 810.65,254.33 	"/>
	<path d="M512.63,254.33l-23.23-27.17c14.81-4.03,20.6-14.23,20.6-27.88c0-17.81-9.84-29.64-36.74-29.64h-32.88v84.69h19.93v-25.28
		h10.15l21.62,25.28H512.63z M460.31,188.33h18.56c8.22,0,11.21,4.36,11.21,10.96c0,6.23-2.99,11.08-11.21,11.08h-18.56V188.33z"/>
	<g>
		<polygon points="429.24,188.33 429.24,169.65 378.7,169.65 363.13,188.33 363.13,254.33 383.06,254.33 383.06,221.32 
			421.89,221.32 421.89,202.63 383.06,202.63 383.06,188.33 		"/>
	</g>
</g>
</svg>
